<?xml version="1.0" encoding="utf-8"?>
<!-- Generator: Adobe Illustrator 27.5.0, SVG Export Plug-In . SVG Version: 6.00 Build 0)  -->
<svg version="1.1" xmlns="http://www.w3.org/2000/svg" xmlns:xlink="http://www.w3.org/1999/xlink" x="0px" y="0px"
	 viewBox="0 0 1122 1122" style="enable-background:new 0 0 1122 1122;" xml:space="preserve">
<g id="Bg">
	<rect style="fill:#F9F7F2;" width="1122" height="1122"/>
</g>
<g id="Object">
	<path style="opacity:0.14;fill:#606060;" d="M260.378,916.164c118.691,4.865,237.529,9.768,356.467,8.822
		c87.397-0.695,224.952,0.973,303.23-31.448c-11.988-12.643-36.865-13.914-58.208-13.918
		c-106.185-0.021-212.241-1.118-318.359-1.751c-58.434-0.349-116.891,1.314-175.101,4.994
		c-38.737,2.449-125.288-0.539-151.981,20.245c11.841,7.434,27.758,12.382,43.907,13.053
		C260.348,916.163,260.363,916.164,260.378,916.164z"/>
	<g>
		<path style="fill:#FD9027;" d="M372.44,371.181c-73.861,69.922-113.58,175.793-98.899,276.436s85.351,192.415,180.724,227.749
			c34.648,12.836,71.599,18.448,108.47,20.839c118.377,7.678,280.499-17.698,330.326-142.324
			c22.865-57.192,39.848-117.73,39.477-179.322c-0.86-142.889-132.751-306.223-283.989-304.218
			C548.881,271.663,445.884,301.655,372.44,371.181z"/>
		<path style="opacity:0.15;fill:#FFFFFF;" d="M638.811,363.984c-8.473,33.509,18.236,64.325,38.828,92.085
			c24.303,32.762,42.337,70.156,52.843,109.572c4.497,16.87,8.555,35.605,22.467,46.155c21.648,16.417,53.499,3.002,72.89-16.029
			c42.544-41.756,56.626-109.634,35.084-165.218C838.277,372.118,667.968,248.68,638.811,363.984z"/>
		<path style="opacity:0.26;fill:#CC681D;" d="M432.961,748.079c22.358,21.25,42.7,46.073,71.47,56.684
			c15.016,5.538,31.232,6.71,47.198,7.83c21.948,1.539,43.896,3.079,65.843,4.618c7.119,0.499,14.923,1.302,19.898,6.419
			c4.886,5.025,5.543,13.034,3.452,19.723c-14.214,45.459-117.086,26.092-149.834,18.722c-38.701-8.71-77.145-24.907-106.855-51.74
			c-20.562-18.572-54.998-76.783-5.871-87.209c18.015-3.823,35.612,7.568,49.275,19.917
			C429.362,744.693,431.168,746.374,432.961,748.079z"/>
		<path style="opacity:0.26;fill:#CC681D;" d="M543.911,340.139c-8.718-0.141-17.446-0.803-26.141-1.498
			c-4.146-0.332-8.357-0.685-12.239-2.178c-6.978-2.684-10.202-7.42-5.925-14.001c4.916-7.56,15.052-9.749,24.064-9.437
			c9.012,0.312,18.097,2.435,26.958,0.76c9.512-1.798,17.65-7.76,26.659-11.302c9.009-3.542,20.74-3.967,26.911,3.49
			c18.872,22.804-27.633,32.088-41.419,33.468C556.507,340.069,550.211,340.24,543.911,340.139z"/>
		<path style="fill:#768439;" d="M529.942,228.406c-0.428-1.916-0.826-3.839-1.115-5.783c-0.332-2.234-0.293-4.698,1.052-6.513
			c2.636-3.558,13.614-2.571,17.32-2.365c2.683,0.149,5.467,0.829,8.051,1.45c2.741,19.92,4.046,39.417,8.53,59.256
			c4.357,19.279,9.128,38.534,10.55,58.31c-0.115-1.584-21.713,3.788-23.924,3.562c-12.363-1.264-18.278-19.252-25.436-28.957
			c-3.284-4.453-6.737-8.858-11.056-12.317c-8.172-6.546-18.702-9.171-28.219-13.536c-0.997-0.458-2.057-1.004-2.534-1.992
			c-0.653-1.352,0.055-2.991,1.054-4.113c4.318-4.854,19.388-7.284,25.125-4.853c5.213,2.209,9.245,6.453,13.118,10.584
			c4.698,5.011,10.555,14.023,16.825,16.2c3.758-11.612-3.718-27.313-5.718-39.042C531.874,248.254,532.203,238.537,529.942,228.406
			z"/>
		<path style="fill:#7E912F;" d="M424.63,312.145c-89.943-2.747-177.896-45.849-235.175-115.25
			c58.096,10.53,117.758,6.662,176.614,11.344c50.959,4.054,104.715,15.376,146.444,46.595
			C573.726,300.628,457.273,313.142,424.63,312.145z"/>
		<g>
			<path style="fill:#6A7733;" d="M533.693,217.915c0.083,0.029,0.168,0.045,0.251,0.07c0.216-0.297,0.431-0.594,0.647-0.891
				L533.693,217.915z"/>
			<path style="fill:#6A7733;" d="M548.799,218.48c-2.284-1.145-4.993-0.89-7.522-0.526c-2.442,0.351-4.989,0.76-7.334,0.033
				c-0.472,0.65-0.945,1.301-1.417,1.951c2.184,6.423,10.675,9.76,16.648,6.545c0.764-0.411,1.5-0.926,1.98-1.649
				C552.568,222.705,551.083,219.624,548.799,218.48z"/>
		</g>
		<path style="fill:#FD9027;" d="M578.896,315.921c7.368-4.584,14.621-10.097,23.217-11.291c2.116-0.294,4.381-0.287,6.254,0.742
			c2.617,1.439,3.88,4.591,3.998,7.575c0.38,9.638-8.611,16.851-17.159,21.318c-10.66,5.571-22.241,9.615-34.221,10.697
			c-17.485,1.579-34.855-3.157-51.772-7.848c-2.152-0.597-4.207-1.164-5.759-2.729c5.908-1.201,13.233,0.199,19.461-0.271
			c6.53-0.492,13.019-1.505,19.391-3.015C555.208,328.041,567.633,322.928,578.896,315.921z"/>
		<path style="opacity:0.4;fill:#BC5B19;" d="M578.896,315.921c7.368-4.584,14.621-10.097,23.217-11.291
			c2.116-0.294,4.381-0.287,6.254,0.742c2.617,1.439,3.88,4.591,3.998,7.575c0.38,9.638-8.611,16.851-17.159,21.318
			c-10.66,5.571-22.241,9.615-34.221,10.697c-17.485,1.579-34.855-3.157-51.772-7.848c-2.152-0.597-4.207-1.164-5.759-2.729
			c5.908-1.201,13.233,0.199,19.461-0.271c6.53-0.492,13.019-1.505,19.391-3.015C555.208,328.041,567.633,322.928,578.896,315.921z"
			/>
		<path style="fill:#849A31;" d="M529.648,275.553c-1.368-5.994-6.64-12.867-17.134-20.719
			c-41.73-31.219-95.485-42.541-146.444-46.595c-58.856-4.682-118.519-0.814-176.614-11.344
			c57.223,21.8,113.599,38.234,174.443,45.145c20.969,2.382,42.253,2.969,62.734,8.056
			C461.882,258.852,493.371,277.336,529.648,275.553z"/>
	</g>
</g>
</svg>
